<svg id="Camada_1" data-name="Camada 1" xmlns="http://www.w3.org/2000/svg" viewBox="0 0 1631.17 475.31"><defs><style>.cls-1{fill:#c1272d;}</style></defs><path class="cls-1" d="M264.5,453.54a17.56,17.56,0,0,1,1.63-7.66,15.71,15.71,0,0,1,4.25-5.49,18.61,18.61,0,0,1,6.08-3.25,22.39,22.39,0,0,1,13.74,0,17.76,17.76,0,0,1,5.9,3.22,16.52,16.52,0,0,1,4.21,5.29,17.57,17.57,0,0,1,1.72,7.43l0,12.46a54.54,54.54,0,0,1,8.44-12.1A52,52,0,0,1,323.16,443a62.27,62.27,0,0,1,15.52-6.4,65.75,65.75,0,0,1,38.24,1.44,48.6,48.6,0,0,1,17.85,11A52.53,52.53,0,0,1,407,468.12q4.51,11.61,4.44,27.57l-.35,82.74a18.19,18.19,0,0,1-1.63,7.82,17.59,17.59,0,0,1-4.26,5.65,17.1,17.1,0,0,1-6.08,3.41,22.53,22.53,0,0,1-7,1.09,21,21,0,0,1-6.78-1.15,17.39,17.39,0,0,1-10.1-9.15,18,18,0,0,1-1.57-7.83l.36-83a44.63,44.63,0,0,0-2.49-15.83,32.73,32.73,0,0,0-6.82-11.21,27.08,27.08,0,0,0-10-6.67,34.15,34.15,0,0,0-12.13-2.2A45.07,45.07,0,0,0,326.75,462a35.32,35.32,0,0,0-12.89,8.17,41.86,41.86,0,0,0-8.76,12.66q-3.23,7.19-3.27,18.36L301.5,578a18,18,0,0,1-1.63,7.82,17.2,17.2,0,0,1-4.26,5.65,17,17,0,0,1-6.08,3.41,22.17,22.17,0,0,1-6.95,1.09,21.42,21.42,0,0,1-6.86-1.15,17,17,0,0,1-6-3.46,17.44,17.44,0,0,1-4.21-5.68A18.14,18.14,0,0,1,264,577.8Z" transform="translate(-19.12 -365.75)"/><path class="cls-1" d="M519.09,667.1c1.78.06,3.61.09,5.48.1a130,130,0,0,0,32.12-3.61,68.53,68.53,0,0,0,25.53-12,56.49,56.49,0,0,0,16.94-21.77q6.12-13.45,6.21-32.75l.6-141.93a18.34,18.34,0,0,0-1.48-7.74,16.61,16.61,0,0,0-4-5.52,17.68,17.68,0,0,0-5.66-3.37,19.1,19.1,0,0,0-6.46-1.14,20,20,0,0,0-5.92.85,16.29,16.29,0,0,0-5.28,2.69,15.94,15.94,0,0,0-4,4.44,15.67,15.67,0,0,0-2,5.74,4.21,4.21,0,0,0-.06.79,4.82,4.82,0,0,1-8.32,3.29c-1-1-1.94-2-3-3a56.93,56.93,0,0,0-13.53-9.95,57.64,57.64,0,0,0-15.47-5.41,89.34,89.34,0,0,0-17-1.66q-16.46-.08-29,6.41a61.82,61.82,0,0,0-21.16,17.85,80.28,80.28,0,0,0-13,26.82,116.63,116.63,0,0,0-4.45,31.4,108.42,108.42,0,0,0,4.26,32,69.67,69.67,0,0,0,13,24.69A60.72,60.72,0,0,0,485,590.64q12.9,6,30,6a70.33,70.33,0,0,0,15.9-1.77A66,66,0,0,0,546,589.47a56.8,56.8,0,0,0,13.3-9.36c.71-.67,1.41-1.36,2.09-2.06a4.81,4.81,0,0,1,8.29,3.34l-.08,18.7q0,10.85-3.51,18.09a29.28,29.28,0,0,1-9.72,11.6,40.91,40.91,0,0,1-15,6.23A90.68,90.68,0,0,1,522,637.84l-1.78,0h0Zm47.14-124.83A51.29,51.29,0,0,1,557,559.16a37.39,37.39,0,0,1-13.54,10.17,39.77,39.77,0,0,1-16.38,3.36,38.61,38.61,0,0,1-16-3.42,35,35,0,0,1-13-10.2,50.55,50.55,0,0,1-8.64-17q-3.15-10.24-3.08-25.25a121,121,0,0,1,2-21.4,54.89,54.89,0,0,1,6.7-18.58,34.27,34.27,0,0,1,12.51-12.32q7.77-4.44,19.59-4.39,12.13,0,20.34,4.8a36.5,36.5,0,0,1,13.12,12.83,57.54,57.54,0,0,1,7,17.76,102.47,102.47,0,0,1,2.06,22.13Q569.71,532.15,566.23,542.27Z" transform="translate(-19.12 -365.75)"/><path class="cls-1" d="M794.71,580.22a18.14,18.14,0,0,1-1.63,7.81,16.68,16.68,0,0,1-4.26,5.58,17.89,17.89,0,0,1-6.08,3.33,22.52,22.52,0,0,1-7,1.08,21.87,21.87,0,0,1-6.62-1.06,17.72,17.72,0,0,1-5.89-3.22,16.25,16.25,0,0,1-4.21-5.29,17.42,17.42,0,0,1-1.73-7.43l0-12A60.06,60.06,0,0,1,748.54,581a55.44,55.44,0,0,1-12.82,10.25,60.59,60.59,0,0,1-15.44,6.32,65.28,65.28,0,0,1-16.54,2.09A64.09,64.09,0,0,1,682.36,596a48.58,48.58,0,0,1-17.92-11.18,53.23,53.23,0,0,1-12.22-19q-4.5-11.52-4.44-26.7l.35-83.37a18.19,18.19,0,0,1,1.63-7.82,17.59,17.59,0,0,1,4.26-5.65,17.29,17.29,0,0,1,6-3.41,21.76,21.76,0,0,1,6.88-1.09,22.48,22.48,0,0,1,6.94,1.15A17,17,0,0,1,684.1,448a18,18,0,0,1,1.57,7.83l-.36,84A42.48,42.48,0,0,0,687.8,555a32.49,32.49,0,0,0,6.82,11.21,27,27,0,0,0,10,6.68,33.69,33.69,0,0,0,12,2.2,46.07,46.07,0,0,0,15.18-2.41,35.22,35.22,0,0,0,12.65-7.45,42.39,42.39,0,0,0,8.91-11.62q3.46-6.61,4.15-16.84l.34-80.81a18,18,0,0,1,1.63-7.82,16.39,16.39,0,0,1,4.26-5.57,17.66,17.66,0,0,1,6-3.33,21.46,21.46,0,0,1,6.87-1.09,21.8,21.8,0,0,1,6.87,1.14,18.16,18.16,0,0,1,6,3.38,16.64,16.64,0,0,1,4.21,5.61,18,18,0,0,1,1.56,7.83Z" transform="translate(-19.12 -365.75)"/><path class="cls-1" d="M839.45,387.3a18.88,18.88,0,0,1,1.63-8.06,17.12,17.12,0,0,1,4.26-5.73,18.26,18.26,0,0,1,6.08-3.49,21.16,21.16,0,0,1,7-1.16,20.55,20.55,0,0,1,6.87,1.22,18.38,18.38,0,0,1,6,3.54,17.3,17.3,0,0,1,4.21,5.77,19,19,0,0,1,1.56,8.07l-.81,192.46a18.24,18.24,0,0,1-1.72,8.06,17.92,17.92,0,0,1-4.33,5.73A18.13,18.13,0,0,1,864,597.2a20.92,20.92,0,0,1-6.95,1.17,21.42,21.42,0,0,1-6.86-1.15,16.23,16.23,0,0,1-5.9-3.46,17.59,17.59,0,0,1-4.13-5.84,19.67,19.67,0,0,1-1.56-8.16Z" transform="translate(-19.12 -365.75)"/><path class="cls-1" d="M1014.53,492.66a34.75,34.75,0,0,0-2.25-13.58,22.22,22.22,0,0,0-6.44-8.81,25.33,25.33,0,0,0-10-4.84A53.9,53.9,0,0,0,983,463.94a109.9,109.9,0,0,0-14.54.82,87.37,87.37,0,0,0-12.23,2.42,102.59,102.59,0,0,0-10.63,3.55q-5,2-9.76,4.19a13,13,0,0,1-4.8.94,10.49,10.49,0,0,1-4.23-.9A11.45,11.45,0,0,1,921,469a10,10,0,0,1-.86-4.08,8,8,0,0,1,.57-3.11,20.25,20.25,0,0,1,1.69-3.11q7.71-11.46,23.87-16.59t39-5a99,99,0,0,1,25.78,3.3,54.9,54.9,0,0,1,20.48,10.23,47,47,0,0,1,13.42,18.1q4.83,11.13,4.76,26.94l-.37,87a17.42,17.42,0,0,1-1.71,7.18,15.91,15.91,0,0,1-4,5.1,16.91,16.91,0,0,1-5.61,3.09,19.88,19.88,0,0,1-6.31,1,19.5,19.5,0,0,1-6-1,15.88,15.88,0,0,1-5.26-2.9,14.67,14.67,0,0,1-3.74-4.81,16.29,16.29,0,0,1-1.56-6.71l0-12a64.48,64.48,0,0,1-8.92,11.54A51.33,51.33,0,0,1,993.58,593a62.36,62.36,0,0,1-15.11,5.84,65.92,65.92,0,0,1-16.14,1.93,70.23,70.23,0,0,1-21.47-3.28,50.53,50.53,0,0,1-17.21-9.34,42.69,42.69,0,0,1-11.36-15.06,43.18,43.18,0,0,1-4.07-18.39q.06-14.68,6.41-25A47.5,47.5,0,0,1,932.75,513q11.78-6.42,28.39-9.22a219.08,219.08,0,0,1,37.23-2.72q3.2,0,7.9.11t8.23.28Zm-.28,29.66-3.12.12c-1.22,0-2.5.07-3.83.06l-4,0h-3.6a183.51,183.51,0,0,0-20.13,1,68,68,0,0,0-18.14,4.32A32.94,32.94,0,0,0,948.3,537q-5.06,6-5.1,15.55a23.37,23.37,0,0,0,2.36,9.92A24,24,0,0,0,952,571a27.32,27.32,0,0,0,9.64,5.07A41.24,41.24,0,0,0,989.35,575a35.25,35.25,0,0,0,12.73-8.49,42.71,42.71,0,0,0,8.6-13q3.15-7.34,3.51-18.35Z" transform="translate(-19.12 -365.75)"/><path class="cls-1" d="M1093.11,457.06a16.84,16.84,0,0,1,1.71-7.66,16.51,16.51,0,0,1,4.33-5.49,18.66,18.66,0,0,1,6.09-3.25,22.47,22.47,0,0,1,7-1.09,21.13,21.13,0,0,1,6.54,1.07,18.53,18.53,0,0,1,5.74,3.06,15.92,15.92,0,0,1,4.21,5.13,16.5,16.5,0,0,1,1.81,7.27c0,.11,0,.8.07,2.08s.06,2.74.06,4.39l0,4.39V469a43.83,43.83,0,0,1,14.15-22.38q10.42-8.82,27.83-8.75a17.66,17.66,0,0,1,7.1,1.39,16.81,16.81,0,0,1,5.18,3.45,13.73,13.73,0,0,1,3.09,4.81,15.8,15.8,0,0,1,1,5.59,15.59,15.59,0,0,1-1.07,5.59,13.83,13.83,0,0,1-3.21,4.86,16.65,16.65,0,0,1-5.45,3.49,19.6,19.6,0,0,1-7.59,1.32,49.79,49.79,0,0,0-16.86,2.65,33.4,33.4,0,0,0-13,8.17,39.66,39.66,0,0,0-8.36,12.66q-3,7.17-3,18.35l-.31,71.56a16.74,16.74,0,0,1-1.71,7.74,17.58,17.58,0,0,1-4.33,5.49,18,18,0,0,1-6.09,3.33,22.47,22.47,0,0,1-7,1.09,21,21,0,0,1-6.78-1.15,18.91,18.91,0,0,1-5.9-3.3,15.76,15.76,0,0,1-4.21-5.53,18.12,18.12,0,0,1-1.56-7.83Z" transform="translate(-19.12 -365.75)"/><path class="cls-1" d="M231.74,570.64l-66.69-168a116.82,116.82,0,0,0-7.75-18,45.27,45.27,0,0,0-8.5-11.3,26.12,26.12,0,0,0-10-5.87,44.85,44.85,0,0,0-24-.18,25.7,25.7,0,0,0-9.93,5.63,43.1,43.1,0,0,0-8.59,11.14,120.26,120.26,0,0,0-8.07,18.25L20.43,569.74a12.35,12.35,0,0,0-1.05,3.43,23.22,23.22,0,0,0-.26,3.28A15.31,15.31,0,0,0,20.93,584a19.11,19.11,0,0,0,4.77,5.77,21.25,21.25,0,0,0,6.77,3.7,23.86,23.86,0,0,0,7.66,1.31l171.22.73a24.39,24.39,0,0,0,7.83-1.25,22.34,22.34,0,0,0,6.88-3.64,18.45,18.45,0,0,0,4.9-5.81,16.28,16.28,0,0,0,1.87-7.74A19.33,19.33,0,0,0,231.74,570.64ZM64.33,564.82l10.22-26.15,8.9-26.8,42.64-113.38h.64l41.53,113.74,8.67,26.87L187,565.34Z" transform="translate(-19.12 -365.75)"/><path class="cls-1" d="M-220.65,904.88" transform="translate(-19.12 -365.75)"/><path class="cls-1" d="M528,637.71s-9.37.17-10.75.16l-58.43-.25c-17.61-.71-16.67,28.63-.13,29.3l55.34.19,14.65,0Z" transform="translate(-19.12 -365.75)"/><path class="cls-1" d="M541.39,636.32" transform="translate(-19.12 -365.75)"/><path class="cls-1" d="M410.65,676" transform="translate(-19.12 -365.75)"/><text x="-19.12" y="-365.75"/></svg>